# xmcd
#
# Track frame offsets: 
#        150
#        14952
#        27708
#        39674
#        54442
#        69314
#        82638
#        102990
#        117688
#        132539
#        147259
#        163117
#        186666
#        202196
#        209109
#        217636
#        240331
#        250633
#        265527
#        279942
#        290975
#
# Disc length: 4073 seconds
#
# Revision: 0
# Processed by: cddbd v1.5.2PL0 Copyright (c) Steve Scherf et al.
# Submitted via: ExactAudioCopy v0.95b3
#
DISCID=4b0fe715
DTITLE=Frank Sinatra  - Volume 5 1940-1941 Complete Edition
DYEAR=1900
DGENRE=
TTITLE0=Oh! Look At Me Now
TTITLE1=You Might Have Belonger To Another
TTITLE2=You Lucky People You
TTITLE3=It's Always You
TTITLE4=I Tried
TTITLE5=Dolores
TTITLE6=Without A Song
TTITLE7=Do I Worry
TTITLE8=Everything Happens To Me
TTITLE9=Everything Happens To Me
TTITLE10=Oh! Look At Me Now!
TTITLE11=Let's Get Away From It All
TTITLE12=The Moon Won't Talk
TTITLE13=Frenesi
TTITLE14=Do I Worry
TTITLE15=Let's Get Away From It All
TTITLE16=Free For All
TTITLE17=I'll Never Let A Day Pass By
TTITLE18=Love Me As I Am
TTITLE19=Free For All
TTITLE20=I'll Never Smile Again
EXTD=
EXTT0=
EXTT1=
EXTT2=
EXTT3=
EXTT4=
EXTT5=
EXTT6=
EXTT7=
EXTT8=
EXTT9=
EXTT10=
EXTT11=
EXTT12=
EXTT13=
EXTT14=
EXTT15=
EXTT16=
EXTT17=
EXTT18=
EXTT19=
EXTT20=
PLAYORDER=
